<?xml version="1.0" encoding="utf-8"?>
<!-- Generator: Adobe Illustrator 23.1.1, SVG Export Plug-In . SVG Version: 6.00 Build 0)  -->
<svg version="1.1" id="Layer_1" xmlns="http://www.w3.org/2000/svg" xmlns:xlink="http://www.w3.org/1999/xlink" x="0px" y="0px"
	 viewBox="0 0 1080 1080" style="enable-background:new 0 0 1080 1080;" xml:space="preserve">
<style type="text/css">
	.st0{fill:none;stroke:#082651;stroke-width:12.5805;stroke-miterlimit:10;}
	.st1{fill:#082651;}
	.st2{fill:url(#SVGID_1_);}
	.st3{fill:none;stroke:#FFFFFF;stroke-width:12.5805;stroke-miterlimit:10;}
	.st4{fill:#FFFFFF;}
</style>
<g>
	<g>
		<g>
			<g>
				<g>
					<line class="st0" x1="1055.96" y1="166.47" x2="949.09" y2="166.47"/>
					<g>
						
							<ellipse transform="matrix(0.2898 -0.9571 0.9571 0.2898 590.2484 1128.3634)" class="st1" cx="1055.42" cy="166.47" rx="10.88" ry="10.88"/>
					</g>
				</g>
			</g>
			<g>
				<g>
					<line class="st0" x1="1055.96" y1="229.06" x2="949.09" y2="229.06"/>
					<g>
						
							<ellipse transform="matrix(0.2898 -0.9571 0.9571 0.2898 530.347 1172.8136)" class="st1" cx="1055.42" cy="229.06" rx="10.88" ry="10.88"/>
					</g>
				</g>
			</g>
			<g>
				<g>
					<line class="st0" x1="1055.96" y1="291.64" x2="949.09" y2="291.64"/>
					<g>
						
							<ellipse transform="matrix(0.2567 -0.9665 0.9665 0.2567 502.6538 1236.8512)" class="st1" cx="1055.42" cy="291.64" rx="10.88" ry="10.88"/>
					</g>
				</g>
			</g>
			<g>
				<g>
					<line class="st0" x1="1055.96" y1="354.23" x2="949.09" y2="354.23"/>
					<g>
						
							<ellipse transform="matrix(0.2567 -0.9665 0.9665 0.2567 442.1636 1283.374)" class="st1" cx="1055.42" cy="354.23" rx="10.88" ry="10.88"/>
					</g>
				</g>
			</g>
			<g>
				<g>
					<line class="st0" x1="1055.96" y1="416.82" x2="949.09" y2="416.82"/>
					<g>
						
							<ellipse transform="matrix(0.331 -0.9436 0.9436 0.331 312.7471 1274.7716)" class="st1" cx="1055.42" cy="416.82" rx="10.88" ry="10.88"/>
					</g>
				</g>
			</g>
			<g>
				<g>
					<line class="st0" x1="1055.96" y1="479.4" x2="949.09" y2="479.4"/>
					<g>
						
							<ellipse transform="matrix(0.331 -0.9436 0.9436 0.331 253.6884 1316.6417)" class="st1" cx="1055.42" cy="479.4" rx="10.88" ry="10.88"/>
					</g>
				</g>
			</g>
			<g>
				<g>
					<line class="st0" x1="1055.96" y1="541.99" x2="949.09" y2="541.99"/>
					<g>
						
							<ellipse transform="matrix(0.3827 -0.9239 0.9239 0.3827 150.7928 1309.6603)" class="st1" cx="1055.42" cy="541.99" rx="10.88" ry="10.88"/>
					</g>
				</g>
			</g>
			<g>
				<g>
					<line class="st0" x1="1055.96" y1="604.58" x2="949.09" y2="604.58"/>
					<g>
						
							<ellipse transform="matrix(0.3827 -0.9239 0.9239 0.3827 92.9701 1348.2961)" class="st1" cx="1055.42" cy="604.58" rx="10.88" ry="10.88"/>
					</g>
				</g>
			</g>
			<g>
				<g>
					<line class="st0" x1="1055.96" y1="667.17" x2="949.09" y2="667.17"/>
					<g>
						
							<ellipse transform="matrix(0.3827 -0.9239 0.9239 0.3827 35.1474 1386.932)" class="st1" cx="1055.42" cy="667.17" rx="10.88" ry="10.88"/>
					</g>
				</g>
			</g>
			<g>
				<g>
					<line class="st0" x1="1055.96" y1="729.75" x2="949.09" y2="729.75"/>
					<g>
						
							<ellipse transform="matrix(0.3827 -0.9239 0.9239 0.3827 -22.6753 1425.5679)" class="st1" cx="1055.42" cy="729.75" rx="10.88" ry="10.88"/>
					</g>
				</g>
			</g>
			<g>
				<g>
					<line class="st0" x1="1055.96" y1="792.34" x2="949.09" y2="792.34"/>
					<g>
						
							<ellipse transform="matrix(0.2898 -0.9571 0.9571 0.2898 -8.7657 1572.8647)" class="st1" cx="1055.42" cy="792.34" rx="10.88" ry="10.88"/>
					</g>
				</g>
			</g>
			<g>
				<g>
					<line class="st0" x1="1055.96" y1="854.93" x2="949.09" y2="854.93"/>
					<g>
						
							<ellipse transform="matrix(0.1891 -0.982 0.982 0.1891 16.3328 1729.6296)" class="st1" cx="1055.42" cy="854.93" rx="10.88" ry="10.88"/>
					</g>
				</g>
			</g>
			<g>
				<g>
					<line class="st0" x1="1055.96" y1="917.51" x2="949.09" y2="917.51"/>
					<g>
						
							<ellipse transform="matrix(0.1891 -0.982 0.982 0.1891 -45.1247 1780.3809)" class="st1" cx="1055.42" cy="917.51" rx="10.88" ry="10.88"/>
					</g>
				</g>
			</g>
		</g>
		<g>
			<g>
				<g>
					<line class="st0" x1="24.04" y1="917.51" x2="130.91" y2="917.51"/>
					<g>
						<path class="st1" d="M24.58,928.39c-6.01,0-10.88-4.87-10.88-10.88c0-6.01,4.87-10.88,10.88-10.88
							c6.01,0,10.88,4.87,10.88,10.88C35.46,923.52,30.59,928.39,24.58,928.39z"/>
					</g>
				</g>
			</g>
			<g>
				<g>
					<line class="st0" x1="24.04" y1="854.93" x2="130.91" y2="854.93"/>
					<g>
						<path class="st1" d="M24.58,865.8c-6.01,0-10.88-4.87-10.88-10.88c0-6.01,4.87-10.88,10.88-10.88
							c6.01,0,10.88,4.87,10.88,10.88C35.46,860.93,30.59,865.8,24.58,865.8z"/>
					</g>
				</g>
			</g>
			<g>
				<g>
					<line class="st0" x1="24.04" y1="792.34" x2="130.91" y2="792.34"/>
					<g>
						<path class="st1" d="M24.58,803.22c-6.01,0-10.88-4.87-10.88-10.88c0-6.01,4.87-10.88,10.88-10.88
							c6.01,0,10.88,4.87,10.88,10.88C35.46,798.35,30.59,803.22,24.58,803.22z"/>
					</g>
				</g>
			</g>
			<g>
				<g>
					<line class="st0" x1="24.04" y1="729.75" x2="130.91" y2="729.75"/>
					<g>
						<path class="st1" d="M24.58,740.63c-6.01,0-10.88-4.87-10.88-10.88s4.87-10.88,10.88-10.88c6.01,0,10.88,4.87,10.88,10.88
							S30.59,740.63,24.58,740.63z"/>
					</g>
				</g>
			</g>
			<g>
				<g>
					<line class="st0" x1="24.04" y1="667.17" x2="130.91" y2="667.17"/>
					<g>
						<path class="st1" d="M24.58,678.04c-6.01,0-10.88-4.87-10.88-10.88s4.87-10.88,10.88-10.88c6.01,0,10.88,4.87,10.88,10.88
							S30.59,678.04,24.58,678.04z"/>
					</g>
				</g>
			</g>
			<g>
				<g>
					<line class="st0" x1="24.04" y1="604.58" x2="130.91" y2="604.58"/>
					<g>
						<path class="st1" d="M24.58,615.46c-6.01,0-10.88-4.87-10.88-10.88s4.87-10.88,10.88-10.88c6.01,0,10.88,4.87,10.88,10.88
							S30.59,615.46,24.58,615.46z"/>
					</g>
				</g>
			</g>
			<g>
				<g>
					<line class="st0" x1="24.04" y1="541.99" x2="130.91" y2="541.99"/>
					<g>
						<path class="st1" d="M24.58,552.87c-6.01,0-10.88-4.87-10.88-10.88s4.87-10.88,10.88-10.88c6.01,0,10.88,4.87,10.88,10.88
							S30.59,552.87,24.58,552.87z"/>
					</g>
				</g>
			</g>
			<g>
				<g>
					<line class="st0" x1="24.04" y1="479.4" x2="130.91" y2="479.4"/>
					<g>
						<path class="st1" d="M24.58,490.28c-6.01,0-10.88-4.87-10.88-10.88c0-6.01,4.87-10.88,10.88-10.88
							c6.01,0,10.88,4.87,10.88,10.88C35.46,485.41,30.59,490.28,24.58,490.28z"/>
					</g>
				</g>
			</g>
			<g>
				<g>
					<line class="st0" x1="24.04" y1="416.82" x2="130.91" y2="416.82"/>
					<g>
						<path class="st1" d="M24.58,427.7c-6.01,0-10.88-4.87-10.88-10.88c0-6.01,4.87-10.88,10.88-10.88
							c6.01,0,10.88,4.87,10.88,10.88C35.46,422.83,30.59,427.7,24.58,427.7z"/>
					</g>
				</g>
			</g>
			<g>
				<g>
					<line class="st0" x1="24.04" y1="354.23" x2="130.91" y2="354.23"/>
					<g>
						<path class="st1" d="M24.58,365.11c-6.01,0-10.88-4.87-10.88-10.88c0-6.01,4.87-10.88,10.88-10.88
							c6.01,0,10.88,4.87,10.88,10.88C35.46,360.24,30.59,365.11,24.58,365.11z"/>
					</g>
				</g>
			</g>
			<g>
				<g>
					<line class="st0" x1="24.04" y1="291.64" x2="130.91" y2="291.64"/>
					<g>
						<path class="st1" d="M24.58,302.52c-6.01,0-10.88-4.87-10.88-10.88c0-6.01,4.87-10.88,10.88-10.88
							c6.01,0,10.88,4.87,10.88,10.88C35.46,297.65,30.59,302.52,24.58,302.52z"/>
					</g>
				</g>
			</g>
			<g>
				<g>
					<line class="st0" x1="24.04" y1="229.06" x2="130.91" y2="229.06"/>
					<g>
						<path class="st1" d="M24.58,239.94c-6.01,0-10.88-4.87-10.88-10.88s4.87-10.88,10.88-10.88c6.01,0,10.88,4.87,10.88,10.88
							S30.59,239.94,24.58,239.94z"/>
					</g>
				</g>
			</g>
			<g>
				<g>
					<line class="st0" x1="24.04" y1="166.47" x2="130.91" y2="166.47"/>
					<g>
						<path class="st1" d="M24.58,177.35c-6.01,0-10.88-4.87-10.88-10.88s4.87-10.88,10.88-10.88c6.01,0,10.88,4.87,10.88,10.88
							S30.59,177.35,24.58,177.35z"/>
					</g>
				</g>
			</g>
		</g>
	</g>
	
		<radialGradient id="SVGID_1_" cx="540" cy="542.25" r="367.5" gradientTransform="matrix(1.1379 0 0 1.1379 -74.4893 -74.4893)" gradientUnits="userSpaceOnUse">
		<stop  offset="0.3589" style="stop-color:#174DD0"/>
		<stop  offset="0.6532" style="stop-color:#12459A"/>
		<stop  offset="0.8784" style="stop-color:#0E4078"/>
		<stop  offset="1" style="stop-color:#0D3E6B"/>
	</radialGradient>
	<path class="st2" d="M893.97,960.75H186.03c-35.47,0-64.22-28.75-64.22-64.22V188.59c0-35.47,28.75-64.22,64.22-64.22h707.94
		c35.47,0,64.22,28.75,64.22,64.22v707.94C958.19,932,929.44,960.75,893.97,960.75z"/>
	<g>
		<g>
			<line class="st3" x1="283.57" y1="196.11" x2="283.57" y2="714.14"/>
			<g>
				<path class="st4" d="M272.7,196.66c0-6.01,4.87-10.88,10.88-10.88c6.01,0,10.88,4.87,10.88,10.88c0,6.01-4.87,10.88-10.88,10.88
					C277.57,207.53,272.7,202.66,272.7,196.66z"/>
			</g>
			<g>
				<path class="st4" d="M272.7,713.59c0,6.01,4.87,10.88,10.88,10.88c6.01,0,10.88-4.87,10.88-10.88c0-6.01-4.87-10.88-10.88-10.88
					C277.57,702.71,272.7,707.59,272.7,713.59z"/>
			</g>
		</g>
	</g>
	<g>
		<g>
			<line class="st3" x1="234.56" y1="196.11" x2="234.56" y2="714.14"/>
			<g>
				<path class="st4" d="M223.68,196.66c0-6.01,4.87-10.88,10.88-10.88s10.88,4.87,10.88,10.88c0,6.01-4.87,10.88-10.88,10.88
					S223.68,202.66,223.68,196.66z"/>
			</g>
			<g>
				<path class="st4" d="M223.68,713.59c0,6.01,4.87,10.88,10.88,10.88s10.88-4.87,10.88-10.88c0-6.01-4.87-10.88-10.88-10.88
					S223.68,707.59,223.68,713.59z"/>
			</g>
		</g>
	</g>
	<g>
		<g>
			<line class="st3" x1="336.36" y1="196.11" x2="336.36" y2="714.14"/>
			<g>
				<path class="st4" d="M325.48,196.66c0-6.01,4.87-10.88,10.88-10.88c6.01,0,10.88,4.87,10.88,10.88
					c0,6.01-4.87,10.88-10.88,10.88C330.35,207.53,325.48,202.66,325.48,196.66z"/>
			</g>
			<g>
				<path class="st4" d="M325.48,713.59c0,6.01,4.87,10.88,10.88,10.88c6.01,0,10.88-4.87,10.88-10.88
					c0-6.01-4.87-10.88-10.88-10.88C330.35,702.71,325.48,707.59,325.48,713.59z"/>
			</g>
		</g>
	</g>
	<g>
		<g>
			<polyline class="st3" points="376.26,422.28 581.07,422.28 581.07,888.4 			"/>
			<g>
				<path class="st4" d="M376.8,433.16c-6.01,0-10.88-4.87-10.88-10.88c0-6.01,4.87-10.88,10.88-10.88
					c6.01,0,10.88,4.87,10.88,10.88C387.68,428.28,382.81,433.16,376.8,433.16z"/>
			</g>
			<g>
				<path class="st4" d="M570.19,887.85c0,6.01,4.87,10.88,10.88,10.88s10.88-4.87,10.88-10.88c0-6.01-4.87-10.88-10.88-10.88
					S570.19,881.85,570.19,887.85z"/>
			</g>
		</g>
	</g>
	<g>
		<g>
			<polyline class="st3" points="376.26,466.4 538.25,466.4 538.25,888.13 			"/>
			<g>
				<path class="st4" d="M376.8,477.28c-6.01,0-10.88-4.87-10.88-10.88c0-6.01,4.87-10.88,10.88-10.88
					c6.01,0,10.88,4.87,10.88,10.88C387.68,472.41,382.81,477.28,376.8,477.28z"/>
			</g>
			<g>
				<path class="st4" d="M527.37,887.59c0,6.01,4.87,10.88,10.88,10.88c6.01,0,10.88-4.87,10.88-10.88
					c0-6.01-4.87-10.88-10.88-10.88C532.24,876.71,527.37,881.58,527.37,887.59z"/>
			</g>
		</g>
	</g>
	<g>
		<g>
			<polyline class="st3" points="376.26,517.17 491.86,517.17 491.86,889.01 			"/>
			<g>
				<path class="st4" d="M376.8,528.05c-6.01,0-10.88-4.87-10.88-10.88c0-6.01,4.87-10.88,10.88-10.88
					c6.01,0,10.88,4.87,10.88,10.88C387.68,523.17,382.81,528.05,376.8,528.05z"/>
			</g>
			<g>
				<path class="st4" d="M480.98,888.47c0,6.01,4.87,10.88,10.88,10.88c6.01,0,10.88-4.87,10.88-10.88
					c0-6.01-4.87-10.88-10.88-10.88C485.86,877.59,480.98,882.46,480.98,888.47z"/>
			</g>
		</g>
	</g>
	<g>
		<g>
			<polyline class="st3" points="622.61,422.28 762.58,422.28 762.58,716.26 639.03,716.26 			"/>
			<g>
				<path class="st4" d="M623.15,433.16c-6.01,0-10.88-4.87-10.88-10.88c0-6.01,4.87-10.88,10.88-10.88
					c6.01,0,10.88,4.87,10.88,10.88C634.03,428.28,629.16,433.16,623.15,433.16z"/>
			</g>
			<g>
				<path class="st4" d="M639.58,705.38c-6.01,0-10.88,4.87-10.88,10.88c0,6.01,4.87,10.88,10.88,10.88
					c6.01,0,10.88-4.87,10.88-10.88C650.46,710.25,645.58,705.38,639.58,705.38z"/>
			</g>
		</g>
	</g>
	<g>
		<g>
			<polyline class="st3" points="625.24,466.04 721.45,466.04 721.45,672.5 641.66,672.5 			"/>
			<g>
				<path class="st4" d="M625.78,476.92c-6.01,0-10.88-4.87-10.88-10.88c0-6.01,4.87-10.88,10.88-10.88
					c6.01,0,10.88,4.87,10.88,10.88C636.66,472.05,631.79,476.92,625.78,476.92z"/>
			</g>
			<g>
				<path class="st4" d="M642.2,661.62c-6.01,0-10.88,4.87-10.88,10.88s4.87,10.88,10.88,10.88c6.01,0,10.88-4.87,10.88-10.88
					S648.21,661.62,642.2,661.62z"/>
			</g>
		</g>
	</g>
	<g>
		<g>
			<line class="st3" x1="807.8" y1="421.12" x2="807.8" y2="717.42"/>
			<g>
				<path class="st4" d="M796.92,421.66c0-6.01,4.87-10.88,10.88-10.88s10.88,4.87,10.88,10.88c0,6.01-4.87,10.88-10.88,10.88
					S796.92,427.67,796.92,421.66z"/>
			</g>
			<g>
				<path class="st4" d="M796.92,716.88c0,6.01,4.87,10.88,10.88,10.88s10.88-4.87,10.88-10.88c0-6.01-4.87-10.88-10.88-10.88
					S796.92,710.87,796.92,716.88z"/>
			</g>
		</g>
	</g>
	<g>
		<g>
			<line class="st3" x1="845.44" y1="421.12" x2="845.44" y2="717.42"/>
			<g>
				<path class="st4" d="M834.56,421.66c0-6.01,4.87-10.88,10.88-10.88s10.88,4.87,10.88,10.88c0,6.01-4.87,10.88-10.88,10.88
					S834.56,427.67,834.56,421.66z"/>
			</g>
			<g>
				<path class="st4" d="M834.56,716.88c0,6.01,4.87,10.88,10.88,10.88s10.88-4.87,10.88-10.88c0-6.01-4.87-10.88-10.88-10.88
					S834.56,710.87,834.56,716.88z"/>
			</g>
		</g>
	</g>
	<g>
		<g>
			<g>
				<line class="st0" x1="164.48" y1="23.18" x2="164.48" y2="130.06"/>
				<g>
					<path class="st1" d="M153.6,23.73c0-6.01,4.87-10.88,10.88-10.88s10.88,4.87,10.88,10.88c0,6.01-4.87,10.88-10.88,10.88
						S153.6,29.73,153.6,23.73z"/>
				</g>
			</g>
		</g>
		<g>
			<g>
				<line class="st0" x1="227.07" y1="23.18" x2="227.07" y2="130.06"/>
				<g>
					<path class="st1" d="M216.19,23.73c0-6.01,4.87-10.88,10.88-10.88s10.88,4.87,10.88,10.88c0,6.01-4.87,10.88-10.88,10.88
						S216.19,29.73,216.19,23.73z"/>
				</g>
			</g>
		</g>
		<g>
			<g>
				<line class="st0" x1="289.65" y1="23.18" x2="289.65" y2="130.06"/>
				<g>
					<path class="st1" d="M278.77,23.73c0-6.01,4.87-10.88,10.88-10.88c6.01,0,10.88,4.87,10.88,10.88
						c0,6.01-4.87,10.88-10.88,10.88C283.65,34.61,278.77,29.73,278.77,23.73z"/>
				</g>
			</g>
		</g>
		<g>
			<g>
				<line class="st0" x1="352.24" y1="23.18" x2="352.24" y2="130.06"/>
				<g>
					<path class="st1" d="M341.36,23.73c0-6.01,4.87-10.88,10.88-10.88c6.01,0,10.88,4.87,10.88,10.88
						c0,6.01-4.87,10.88-10.88,10.88C346.23,34.61,341.36,29.73,341.36,23.73z"/>
				</g>
			</g>
		</g>
		<g>
			<g>
				<line class="st0" x1="414.83" y1="23.18" x2="414.83" y2="130.06"/>
				<g>
					<path class="st1" d="M403.95,23.73c0-6.01,4.87-10.88,10.88-10.88c6.01,0,10.88,4.87,10.88,10.88
						c0,6.01-4.87,10.88-10.88,10.88C408.82,34.61,403.95,29.73,403.95,23.73z"/>
				</g>
			</g>
		</g>
		<g>
			<g>
				<line class="st0" x1="477.41" y1="23.18" x2="477.41" y2="130.06"/>
				<g>
					<path class="st1" d="M466.53,23.73c0-6.01,4.87-10.88,10.88-10.88c6.01,0,10.88,4.87,10.88,10.88
						c0,6.01-4.87,10.88-10.88,10.88C471.41,34.61,466.53,29.73,466.53,23.73z"/>
				</g>
			</g>
		</g>
		<g>
			<g>
				<line class="st0" x1="540" y1="23.18" x2="540" y2="130.06"/>
				<g>
					<path class="st1" d="M529.12,23.73c0-6.01,4.87-10.88,10.88-10.88s10.88,4.87,10.88,10.88c0,6.01-4.87,10.88-10.88,10.88
						S529.12,29.73,529.12,23.73z"/>
				</g>
			</g>
		</g>
		<g>
			<g>
				<line class="st0" x1="602.59" y1="23.18" x2="602.59" y2="130.06"/>
				<g>
					<path class="st1" d="M591.71,23.73c0-6.01,4.87-10.88,10.88-10.88c6.01,0,10.88,4.87,10.88,10.88
						c0,6.01-4.87,10.88-10.88,10.88C596.58,34.61,591.71,29.73,591.71,23.73z"/>
				</g>
			</g>
		</g>
		<g>
			<g>
				<line class="st0" x1="665.17" y1="23.18" x2="665.17" y2="130.06"/>
				<g>
					<path class="st1" d="M654.29,23.73c0-6.01,4.87-10.88,10.88-10.88c6.01,0,10.88,4.87,10.88,10.88
						c0,6.01-4.87,10.88-10.88,10.88C659.17,34.61,654.29,29.73,654.29,23.73z"/>
				</g>
			</g>
		</g>
		<g>
			<g>
				<line class="st0" x1="727.76" y1="23.18" x2="727.76" y2="130.06"/>
				<g>
					<path class="st1" d="M716.88,23.73c0-6.01,4.87-10.88,10.88-10.88s10.88,4.87,10.88,10.88c0,6.01-4.87,10.88-10.88,10.88
						S716.88,29.73,716.88,23.73z"/>
				</g>
			</g>
		</g>
		<g>
			<g>
				<line class="st0" x1="790.35" y1="23.18" x2="790.35" y2="130.06"/>
				<g>
					<path class="st1" d="M779.47,23.73c0-6.01,4.87-10.88,10.88-10.88c6.01,0,10.88,4.87,10.88,10.88
						c0,6.01-4.87,10.88-10.88,10.88C784.34,34.61,779.47,29.73,779.47,23.73z"/>
				</g>
			</g>
		</g>
		<g>
			<g>
				<line class="st0" x1="852.93" y1="23.18" x2="852.93" y2="130.06"/>
				<g>
					<path class="st1" d="M842.06,23.73c0-6.01,4.87-10.88,10.88-10.88c6.01,0,10.88,4.87,10.88,10.88
						c0,6.01-4.87,10.88-10.88,10.88C846.93,34.61,842.06,29.73,842.06,23.73z"/>
				</g>
			</g>
		</g>
		<g>
			<g>
				<line class="st0" x1="915.52" y1="23.18" x2="915.52" y2="130.06"/>
				<g>
					<path class="st1" d="M904.64,23.73c0-6.01,4.87-10.88,10.88-10.88s10.88,4.87,10.88,10.88c0,6.01-4.87,10.88-10.88,10.88
						S904.64,29.73,904.64,23.73z"/>
				</g>
			</g>
		</g>
	</g>
	<g>
		<g>
			<g>
				<line class="st0" x1="916.09" y1="1056.82" x2="916.09" y2="949.94"/>
				<g>
					<path class="st1" d="M926.97,1056.27c0,6.01-4.87,10.88-10.88,10.88s-10.88-4.87-10.88-10.88c0-6.01,4.87-10.88,10.88-10.88
						S926.97,1050.27,926.97,1056.27z"/>
				</g>
			</g>
		</g>
		<g>
			<g>
				<line class="st0" x1="853.5" y1="1056.82" x2="853.5" y2="949.94"/>
				<g>
					<path class="st1" d="M864.38,1056.27c0,6.01-4.87,10.88-10.88,10.88c-6.01,0-10.88-4.87-10.88-10.88
						c0-6.01,4.87-10.88,10.88-10.88C859.51,1045.39,864.38,1050.27,864.38,1056.27z"/>
				</g>
			</g>
		</g>
		<g>
			<g>
				<line class="st0" x1="790.92" y1="1056.82" x2="790.92" y2="949.94"/>
				<g>
					<path class="st1" d="M801.8,1056.27c0,6.01-4.87,10.88-10.88,10.88c-6.01,0-10.88-4.87-10.88-10.88
						c0-6.01,4.87-10.88,10.88-10.88C796.92,1045.39,801.8,1050.27,801.8,1056.27z"/>
				</g>
			</g>
		</g>
		<g>
			<g>
				<line class="st0" x1="728.33" y1="1056.82" x2="728.33" y2="949.94"/>
				<g>
					<path class="st1" d="M739.21,1056.27c0,6.01-4.87,10.88-10.88,10.88s-10.88-4.87-10.88-10.88c0-6.01,4.87-10.88,10.88-10.88
						S739.21,1050.27,739.21,1056.27z"/>
				</g>
			</g>
		</g>
		<g>
			<g>
				<line class="st0" x1="665.74" y1="1056.82" x2="665.74" y2="949.94"/>
				<g>
					<path class="st1" d="M676.62,1056.27c0,6.01-4.87,10.88-10.88,10.88c-6.01,0-10.88-4.87-10.88-10.88
						c0-6.01,4.87-10.88,10.88-10.88C671.75,1045.39,676.62,1050.27,676.62,1056.27z"/>
				</g>
			</g>
		</g>
		<g>
			<g>
				<line class="st0" x1="603.16" y1="1056.82" x2="603.16" y2="949.94"/>
				<g>
					<path class="st1" d="M614.03,1056.27c0,6.01-4.87,10.88-10.88,10.88c-6.01,0-10.88-4.87-10.88-10.88
						c0-6.01,4.87-10.88,10.88-10.88C609.16,1045.39,614.03,1050.27,614.03,1056.27z"/>
				</g>
			</g>
		</g>
		<g>
			<g>
				<line class="st0" x1="540.57" y1="1056.82" x2="540.57" y2="949.94"/>
				<g>
					<path class="st1" d="M551.45,1056.27c0,6.01-4.87,10.88-10.88,10.88s-10.88-4.87-10.88-10.88c0-6.01,4.87-10.88,10.88-10.88
						S551.45,1050.27,551.45,1056.27z"/>
				</g>
			</g>
		</g>
		<g>
			<g>
				<line class="st0" x1="477.98" y1="1056.82" x2="477.98" y2="949.94"/>
				<g>
					<path class="st1" d="M488.86,1056.27c0,6.01-4.87,10.88-10.88,10.88c-6.01,0-10.88-4.87-10.88-10.88
						c0-6.01,4.87-10.88,10.88-10.88C483.99,1045.39,488.86,1050.27,488.86,1056.27z"/>
				</g>
			</g>
		</g>
		<g>
			<g>
				<line class="st0" x1="415.4" y1="1056.82" x2="415.4" y2="949.94"/>
				<g>
					<path class="st1" d="M426.27,1056.27c0,6.01-4.87,10.88-10.88,10.88c-6.01,0-10.88-4.87-10.88-10.88
						c0-6.01,4.87-10.88,10.88-10.88C421.4,1045.39,426.27,1050.27,426.27,1056.27z"/>
				</g>
			</g>
		</g>
		<g>
			<g>
				<line class="st0" x1="352.81" y1="1056.82" x2="352.81" y2="949.94"/>
				<g>
					<path class="st1" d="M363.69,1056.27c0,6.01-4.87,10.88-10.88,10.88c-6.01,0-10.88-4.87-10.88-10.88
						c0-6.01,4.87-10.88,10.88-10.88C358.82,1045.39,363.69,1050.27,363.69,1056.27z"/>
				</g>
			</g>
		</g>
		<g>
			<g>
				<line class="st0" x1="290.22" y1="1056.82" x2="290.22" y2="949.94"/>
				<g>
					<path class="st1" d="M301.1,1056.27c0,6.01-4.87,10.88-10.88,10.88c-6.01,0-10.88-4.87-10.88-10.88
						c0-6.01,4.87-10.88,10.88-10.88C296.23,1045.39,301.1,1050.27,301.1,1056.27z"/>
				</g>
			</g>
		</g>
		<g>
			<g>
				<line class="st0" x1="227.63" y1="1056.82" x2="227.63" y2="949.94"/>
				<g>
					<path class="st1" d="M238.51,1056.27c0,6.01-4.87,10.88-10.88,10.88s-10.88-4.87-10.88-10.88c0-6.01,4.87-10.88,10.88-10.88
						S238.51,1050.27,238.51,1056.27z"/>
				</g>
			</g>
		</g>
		<g>
			<g>
				<line class="st0" x1="165.05" y1="1056.82" x2="165.05" y2="949.94"/>
				<g>
					<path class="st1" d="M175.93,1056.27c0,6.01-4.87,10.88-10.88,10.88s-10.88-4.87-10.88-10.88c0-6.01,4.87-10.88,10.88-10.88
						S175.93,1050.27,175.93,1056.27z"/>
				</g>
			</g>
		</g>
	</g>
</g>
</svg>
